<svg width="20" height="24" viewBox="0 0 20 24" fill="none" xmlns="http://www.w3.org/2000/svg">
<path d="M10 13.0833C8.95278 13.0833 8.05903 12.7132 7.31875 11.9729C6.57847 11.2326 6.20833 10.3389 6.20833 9.29167C6.20833 8.24444 6.57847 7.35069 7.31875 6.61042C8.05903 5.87014 8.95278 5.5 10 5.5C11.0472 5.5 11.941 5.87014 12.6813 6.61042C13.4215 7.35069 13.7917 8.24444 13.7917 9.29167C13.7917 10.3389 13.4215 11.2326 12.6813 11.9729C11.941 12.7132 11.0472 13.0833 10 13.0833ZM10 10.9167C10.4514 10.9167 10.8351 10.7587 11.151 10.4427C11.467 10.1267 11.625 9.74306 11.625 9.29167C11.625 8.84028 11.467 8.4566 11.151 8.14063C10.8351 7.82465 10.4514 7.66667 10 7.66667C9.54861 7.66667 9.16493 7.82465 8.84896 8.14063C8.53299 8.4566 8.375 8.84028 8.375 9.29167C8.375 9.74306 8.53299 10.1267 8.84896 10.4427C9.16493 10.7587 9.54861 10.9167 10 10.9167ZM10 23.375L0.25 17.4167V6.58333L10 0.625L19.75 6.58333V17.4167L10 23.375ZM10 20.8563L13.9813 18.3917C13.3674 18.0667 12.7219 17.8229 12.0448 17.6604C11.3677 17.4979 10.6861 17.4167 10 17.4167C9.31389 17.4167 8.63229 17.4979 7.95521 17.6604C7.27813 17.8229 6.63264 18.0667 6.01875 18.3917L10 20.8563ZM3.93333 17.1188C4.83611 16.5049 5.80208 16.0399 6.83125 15.724C7.86042 15.408 8.91667 15.25 10 15.25C11.0833 15.25 12.1396 15.408 13.1688 15.724C14.1979 16.0399 15.1639 16.5049 16.0667 17.1188L17.5833 16.225V7.80208L10 3.17083L2.41667 7.80208V16.225L3.93333 17.1188Z" fill="#404F6D"/>
</svg>
