<svg width="22" height="22" viewBox="0 0 22 22" fill="none" xmlns="http://www.w3.org/2000/svg">
<path d="M8.02085 21.8334L7.58752 18.3667C7.3528 18.2764 7.13162 18.1681 6.92398 18.0417C6.71634 17.9153 6.51321 17.7799 6.3146 17.6355L3.09169 18.9896L0.112518 13.8438L2.9021 11.7313C2.88405 11.6049 2.87502 11.483 2.87502 11.3657V10.6344C2.87502 10.5171 2.88405 10.3952 2.9021 10.2688L0.112518 8.1563L3.09169 3.01047L6.3146 4.36463C6.51321 4.22019 6.72085 4.08477 6.93752 3.95838C7.15419 3.832 7.37085 3.72366 7.58752 3.63338L8.02085 0.166718H13.9792L14.4125 3.63338C14.6472 3.72366 14.8684 3.832 15.0761 3.95838C15.2837 4.08477 15.4868 4.22019 15.6854 4.36463L18.9084 3.01047L21.8875 8.1563L19.0979 10.2688C19.116 10.3952 19.125 10.5171 19.125 10.6344V11.3657C19.125 11.483 19.107 11.6049 19.0709 11.7313L21.8604 13.8438L18.8813 18.9896L15.6854 17.6355C15.4868 17.7799 15.2792 17.9153 15.0625 18.0417C14.8459 18.1681 14.6292 18.2764 14.4125 18.3667L13.9792 21.8334H8.02085ZM9.91669 19.6667H12.0563L12.4354 16.7959C12.9952 16.6514 13.5143 16.4393 13.9927 16.1594C14.4712 15.8796 14.909 15.541 15.3063 15.1438L17.9875 16.2542L19.0438 14.4126L16.7146 12.6521C16.8049 12.3994 16.8681 12.133 16.9042 11.8532C16.9403 11.5733 16.9584 11.2889 16.9584 11.0001C16.9584 10.7112 16.9403 10.4268 16.9042 10.1469C16.8681 9.86707 16.8049 9.60075 16.7146 9.34797L19.0438 7.58755L17.9875 5.74588L15.3063 6.88338C14.909 6.46811 14.4712 6.12054 13.9927 5.84068C13.5143 5.56082 12.9952 5.34866 12.4354 5.20422L12.0834 2.33338H9.94377L9.5646 5.20422C9.00488 5.34866 8.48578 5.56082 8.00731 5.84068C7.52884 6.12054 7.09099 6.45908 6.69377 6.8563L4.01252 5.74588L2.95627 7.58755L5.28544 9.32088C5.19516 9.59172 5.13196 9.86255 5.09585 10.1334C5.05974 10.4042 5.04169 10.6931 5.04169 11.0001C5.04169 11.2889 5.05974 11.5688 5.09585 11.8396C5.13196 12.1105 5.19516 12.3813 5.28544 12.6521L2.95627 14.4126L4.01252 16.2542L6.69377 15.1167C7.09099 15.532 7.52884 15.8796 8.00731 16.1594C8.48578 16.4393 9.00488 16.6514 9.5646 16.7959L9.91669 19.6667ZM11.0542 14.7917C12.1014 14.7917 12.9952 14.4216 13.7354 13.6813C14.4757 12.941 14.8459 12.0473 14.8459 11.0001C14.8459 9.95283 14.4757 9.05908 13.7354 8.3188C12.9952 7.57852 12.1014 7.20838 11.0542 7.20838C9.98891 7.20838 9.09064 7.57852 8.35939 8.3188C7.62814 9.05908 7.26252 9.95283 7.26252 11.0001C7.26252 12.0473 7.62814 12.941 8.35939 13.6813C9.09064 14.4216 9.98891 14.7917 11.0542 14.7917Z" fill="#404F6D"/>
</svg>
